<?xml version="1.0" standalone="no"?>
<!DOCTYPE svg PUBLIC "-//W3C//DTD SVG 20010904//EN"
 "http://www.w3.org/TR/2001/REC-SVG-20010904/DTD/svg10.dtd">
<svg version="1.0" xmlns="http://www.w3.org/2000/svg"
 width="500.000000pt" height="500.000000pt" viewBox="0 0 500.000000 500.000000"
 preserveAspectRatio="xMidYMid meet">

<g transform="translate(0.000000,500.000000) scale(0.100000,-0.100000)"
fill="#000000" stroke="none">
<path d="M2091 3010 l-393 -400 49 0 48 0 345 345 c190 190 349 345 355 345 6
0 165 -155 355 -345 l345 -345 49 0 49 0 -394 398 c-216 218 -398 398 -404
400 -6 1 -188 -177 -404 -398z"/>
<path d="M2202 2897 c-160 -160 -292 -295 -292 -300 0 -4 26 -7 58 -7 l57 0
235 235 235 235 235 -235 235 -235 58 0 c31 0 57 3 57 8 0 4 -132 139 -293
300 l-292 292 -293 -293z"/>
<path d="M1194 2468 c-73 -35 -48 -168 31 -168 56 0 65 8 65 56 0 42 -1 44
-30 44 -20 0 -30 -5 -30 -15 0 -8 7 -15 15 -15 23 0 18 -38 -5 -45 -32 -10
-50 12 -50 60 0 49 18 70 55 63 29 -6 45 10 24 23 -18 11 -49 10 -75 -3z"/>
<path d="M1568 2469 c-11 -6 -18 -22 -18 -40 0 -26 6 -33 40 -46 25 -10 40
-22 40 -33 0 -23 -24 -32 -54 -20 -28 10 -40 2 -25 -17 16 -18 84 -17 103 3
32 32 18 66 -38 89 -43 18 -43 39 0 42 48 2 50 3 30 18 -23 17 -53 19 -78 4z"/>
<path d="M2275 2455 c-53 -52 -19 -155 50 -155 44 0 75 38 75 92 0 47 -35 88
-75 88 -14 0 -37 -11 -50 -25z m80 -64 c0 -39 -4 -57 -17 -64 -28 -18 -48 9
-48 63 0 54 5 62 40 58 23 -3 25 -7 25 -57z"/>
<path d="M3193 2468 c-64 -31 -44 -168 24 -168 13 0 37 -7 53 -15 18 -9 31
-11 35 -5 9 14 -3 30 -22 30 -15 0 -15 2 -1 18 38 43 29 119 -18 141 -30 13
-42 13 -71 -1z m65 -30 c27 -27 6 -118 -28 -118 -20 0 -40 34 -40 69 0 40 14
61 40 61 9 0 21 -5 28 -12z"/>
<path d="M3750 2462 c-33 -27 -21 -67 24 -82 39 -13 51 -33 30 -51 -11 -9 -21
-9 -39 -1 -17 8 -26 8 -31 1 -16 -27 67 -40 100 -16 12 9 17 23 14 42 -2 23
-12 34 -40 48 -50 23 -52 52 -3 44 40 -7 51 16 13 27 -35 9 -44 7 -68 -12z"/>
<path d="M1350 2407 c0 -78 17 -107 65 -107 52 0 65 20 65 101 0 55 -3 69 -15
69 -12 0 -15 -14 -15 -64 0 -67 -13 -92 -44 -80 -13 5 -16 21 -16 75 0 62 -2
69 -20 69 -18 0 -20 -7 -20 -63z"/>
<path d="M1710 2460 c0 -5 11 -10 25 -10 24 0 25 -2 25 -75 0 -68 2 -75 20
-75 18 0 20 7 20 75 0 68 2 75 20 75 11 0 20 5 20 10 0 6 -28 10 -65 10 -37 0
-65 -4 -65 -10z"/>
<path d="M1910 2403 c-11 -38 -23 -76 -26 -85 -4 -13 0 -18 15 -18 14 0 21 6
21 20 0 16 7 20 31 20 22 0 32 -5 36 -20 3 -12 14 -20 25 -20 14 0 18 5 14 15
-3 9 -15 47 -27 85 -18 61 -24 70 -45 70 -20 0 -26 -9 -44 -67z m57 -29 c-3
-3 -12 -4 -19 -2 -12 2 -13 10 -5 38 l10 35 10 -33 c6 -18 7 -35 4 -38z"/>
<path d="M2063 2456 c3 -7 15 -46 27 -85 18 -60 24 -71 43 -71 19 0 25 11 45
81 12 45 20 84 18 87 -15 15 -34 -14 -46 -68 -14 -67 -20 -65 -40 18 -9 41
-16 52 -32 52 -13 0 -18 -5 -15 -14z"/>
<path d="M2560 2423 c0 -27 -3 -65 -6 -85 -6 -34 -4 -38 15 -38 19 0 21 6 22
63 l1 62 16 -52 c21 -74 44 -72 63 5 l14 57 3 -67 c2 -58 6 -68 21 -68 16 0
18 7 14 73 -6 92 -8 99 -35 95 -19 -2 -25 -12 -32 -50 -8 -43 -26 -67 -26 -35
0 6 -5 29 -11 50 -8 30 -15 37 -34 37 -23 0 -25 -4 -25 -47z"/>
<path d="M2820 2463 c0 -5 -11 -43 -24 -85 -23 -73 -23 -78 -6 -78 10 0 20 9
23 20 4 15 14 20 36 20 24 0 31 -4 31 -20 0 -13 7 -20 20 -20 11 0 20 2 20 4
0 3 -11 41 -25 85 -23 72 -28 81 -50 81 -14 0 -25 -3 -25 -7z m40 -62 c7 -27
6 -31 -11 -31 -20 0 -23 10 -13 48 8 27 12 25 24 -17z"/>
<path d="M2970 2385 c0 -78 2 -85 20 -85 16 0 20 7 20 35 0 19 4 35 9 35 5 0
18 -16 30 -35 12 -21 28 -35 40 -35 20 0 20 0 0 35 -19 32 -19 36 -5 57 33 47
8 78 -65 78 l-49 0 0 -85z m88 41 c2 -10 -2 -22 -10 -27 -25 -17 -38 -9 -38
22 0 26 3 30 22 27 13 -2 24 -11 26 -22z"/>
<path d="M3370 2401 c0 -81 13 -101 65 -101 48 0 65 29 65 107 0 56 -2 63 -20
63 -18 0 -20 -7 -20 -69 0 -54 -3 -70 -16 -75 -31 -12 -44 13 -44 80 0 50 -3
64 -15 64 -12 0 -15 -14 -15 -69z"/>
<path d="M3570 2385 l0 -85 50 0 c38 0 50 4 50 15 0 11 -11 15 -36 15 -31 0
-35 3 -32 23 2 16 11 23 31 25 15 2 27 7 27 12 0 5 -12 10 -27 12 -20 2 -28 9
-28 23 0 15 8 21 33 23 51 5 37 22 -18 22 l-50 0 0 -85z"/>
<path d="M2200 1885 l295 -295 293 292 292 293 -57 3 -57 3 -230 -230 c-127
-127 -236 -231 -241 -231 -6 0 -114 104 -240 230 l-230 230 -60 0 -60 0 295
-295z"/>
<path d="M2095 1760 l400 -400 398 397 397 398 -52 3 -52 3 -345 -345 -346
-346 -345 345 -345 345 -55 0 -55 0 400 -400z"/>
</g>
</svg>
